<?xml version="1.0" encoding="UTF-8" standalone="no"?>
<svg
   xmlns:dc="http://purl.org/dc/elements/1.1/"
   xmlns:cc="http://creativecommons.org/ns#"
   xmlns:rdf="http://www.w3.org/1999/02/22-rdf-syntax-ns#"
   xmlns:svg="http://www.w3.org/2000/svg"
   xmlns="http://www.w3.org/2000/svg"
   xmlns:sodipodi="http://sodipodi.sourceforge.net/DTD/sodipodi-0.dtd"
   xmlns:inkscape="http://www.inkscape.org/namespaces/inkscape"
   version="1.1"
   id="Capa_1"
   x="0px"
   y="0px"
   viewBox="0 0 44.999123 29.999998"
   xml:space="preserve"
   sodipodi:docname="en.svg"
   width="44.999123"
   height="29.999998"
   inkscape:version="1.0.2-2 (e86c870879, 2021-01-15)"><metadata
   id="metadata461"><rdf:RDF><cc:Work
       rdf:about=""><dc:format>image/svg+xml</dc:format><dc:type
         rdf:resource="http://purl.org/dc/dcmitype/StillImage" /></cc:Work></rdf:RDF></metadata><defs
   id="defs459" /><sodipodi:namedview
   pagecolor="#ffffff"
   bordercolor="#666666"
   borderopacity="1"
   objecttolerance="10"
   gridtolerance="10"
   guidetolerance="10"
   inkscape:pageopacity="0"
   inkscape:pageshadow="2"
   inkscape:window-width="1920"
   inkscape:window-height="976"
   id="namedview457"
   showgrid="false"
   inkscape:zoom="1.5800781"
   inkscape:cx="256"
   inkscape:cy="0.0099978943"
   inkscape:window-x="1912"
   inkscape:window-y="-8"
   inkscape:window-maximized="1"
   inkscape:current-layer="Capa_1" />
<rect
   y="0.00026054017"
   style="fill:#f0f0f0;stroke-width:0.0878889"
   width="44.999119"
   height="29.999737"
   id="rect382"
   x="0" />
<polygon
   style="fill:#d80027"
   points="0,223.996 0,287.996 224,287.996 224,426.662 288,426.662 288,287.996 512,287.996 512,223.996 288,223.996 288,85.33 224,85.33 224,223.996 "
   id="polygon384"
   transform="matrix(0.08788891,0,0,0.08788891,0,-7.4995607)" />
<g
   id="g392"
   transform="matrix(0.08788891,0,0,0.08788891,0,-7.4995607)">
	<polygon
   style="fill:#0052b4"
   points="393.785,315.358 512,381.034 512,315.358 "
   id="polygon386" />
	<polygon
   style="fill:#0052b4"
   points="368.307,315.358 311.652,315.358 512,426.662 512,395.188 "
   id="polygon388" />
	<polygon
   style="fill:#0052b4"
   points="458.634,426.662 311.652,344.998 311.652,426.662 "
   id="polygon390" />
</g>
<polygon
   style="fill:#f0f0f0"
   points="368.307,315.358 311.652,315.358 512,426.662 512,395.188 "
   id="polygon394"
   transform="matrix(0.08788891,0,0,0.08788891,0,-7.4995607)" />
<polygon
   style="fill:#d80027"
   points="368.307,315.358 311.652,315.358 512,426.662 512,395.188 "
   id="polygon396"
   transform="matrix(0.08788891,0,0,0.08788891,0,-7.4995607)" />
<g
   id="g402"
   transform="matrix(0.08788891,0,0,0.08788891,0,-7.4995607)">
	<polygon
   style="fill:#0052b4"
   points="90.341,315.356 0,365.546 0,315.356 "
   id="polygon398" />
	<polygon
   style="fill:#0052b4"
   points="200.348,329.51 200.348,426.661 25.491,426.661 "
   id="polygon400" />
</g>
<polygon
   style="fill:#d80027"
   points="0,426.662 200.348,315.358 143.693,315.358 0,395.188 0,426.662 "
   id="polygon404"
   transform="matrix(0.08788891,0,0,0.08788891,0,-7.4995607)" />
<g
   id="g412"
   transform="matrix(0.08788891,0,0,0.08788891,0,-7.4995607)">
	<polygon
   style="fill:#0052b4"
   points="118.215,196.634 0,130.958 0,196.634 "
   id="polygon406" />
	<polygon
   style="fill:#0052b4"
   points="143.693,196.634 200.348,196.634 0,85.33 0,116.804 "
   id="polygon408" />
	<polygon
   style="fill:#0052b4"
   points="53.366,85.33 200.348,166.994 200.348,85.33 "
   id="polygon410" />
</g>
<polygon
   style="fill:#f0f0f0"
   points="143.693,196.634 200.348,196.634 0,85.33 0,116.804 "
   id="polygon414"
   transform="matrix(0.08788891,0,0,0.08788891,0,-7.4995607)" />
<polygon
   style="fill:#d80027"
   points="143.693,196.634 200.348,196.634 0,85.33 0,116.804 "
   id="polygon416"
   transform="matrix(0.08788891,0,0,0.08788891,0,-7.4995607)" />
<g
   id="g422"
   transform="matrix(0.08788891,0,0,0.08788891,0,-7.4995607)">
	<polygon
   style="fill:#0052b4"
   points="421.659,196.636 512,146.446 512,196.636 "
   id="polygon418" />
	<polygon
   style="fill:#0052b4"
   points="311.652,182.482 311.652,85.331 486.509,85.331 "
   id="polygon420" />
</g>
<polygon
   style="fill:#d80027"
   points="512,85.33 311.652,196.634 368.307,196.634 512,116.804 512,85.33 "
   id="polygon424"
   transform="matrix(0.08788891,0,0,0.08788891,0,-7.4995607)" />
<g
   id="g426"
   transform="matrix(0.08788891,0,0,0.08788891,0,-7.4995607)">
</g>
<g
   id="g428"
   transform="matrix(0.08788891,0,0,0.08788891,0,-7.4995607)">
</g>
<g
   id="g430"
   transform="matrix(0.08788891,0,0,0.08788891,0,-7.4995607)">
</g>
<g
   id="g432"
   transform="matrix(0.08788891,0,0,0.08788891,0,-7.4995607)">
</g>
<g
   id="g434"
   transform="matrix(0.08788891,0,0,0.08788891,0,-7.4995607)">
</g>
<g
   id="g436"
   transform="matrix(0.08788891,0,0,0.08788891,0,-7.4995607)">
</g>
<g
   id="g438"
   transform="matrix(0.08788891,0,0,0.08788891,0,-7.4995607)">
</g>
<g
   id="g440"
   transform="matrix(0.08788891,0,0,0.08788891,0,-7.4995607)">
</g>
<g
   id="g442"
   transform="matrix(0.08788891,0,0,0.08788891,0,-7.4995607)">
</g>
<g
   id="g444"
   transform="matrix(0.08788891,0,0,0.08788891,0,-7.4995607)">
</g>
<g
   id="g446"
   transform="matrix(0.08788891,0,0,0.08788891,0,-7.4995607)">
</g>
<g
   id="g448"
   transform="matrix(0.08788891,0,0,0.08788891,0,-7.4995607)">
</g>
<g
   id="g450"
   transform="matrix(0.08788891,0,0,0.08788891,0,-7.4995607)">
</g>
<g
   id="g452"
   transform="matrix(0.08788891,0,0,0.08788891,0,-7.4995607)">
</g>
<g
   id="g454"
   transform="matrix(0.08788891,0,0,0.08788891,0,-7.4995607)">
</g>
</svg>
