<?xml version="1.0" encoding="UTF-8" standalone="no"?>
<svg
   xmlns:dc="http://purl.org/dc/elements/1.1/"
   xmlns:cc="http://creativecommons.org/ns#"
   xmlns:rdf="http://www.w3.org/1999/02/22-rdf-syntax-ns#"
   xmlns:svg="http://www.w3.org/2000/svg"
   xmlns="http://www.w3.org/2000/svg"
   xmlns:sodipodi="http://sodipodi.sourceforge.net/DTD/sodipodi-0.dtd"
   xmlns:inkscape="http://www.inkscape.org/namespaces/inkscape"
   version="1.1"
   id="Capa_1"
   x="0px"
   y="0px"
   viewBox="0 0 44.998859 29.999998"
   xml:space="preserve"
   sodipodi:docname="no.svg"
   width="44.998859"
   height="29.999998"
   inkscape:version="1.0.2-2 (e86c870879, 2021-01-15)"><metadata
   id="metadata299"><rdf:RDF><cc:Work
       rdf:about=""><dc:format>image/svg+xml</dc:format><dc:type
         rdf:resource="http://purl.org/dc/dcmitype/StillImage" /></cc:Work></rdf:RDF></metadata><defs
   id="defs297" /><sodipodi:namedview
   pagecolor="#ffffff"
   bordercolor="#666666"
   borderopacity="1"
   objecttolerance="10"
   gridtolerance="10"
   guidetolerance="10"
   inkscape:pageopacity="0"
   inkscape:pageshadow="2"
   inkscape:window-width="1920"
   inkscape:window-height="976"
   id="namedview295"
   showgrid="false"
   inkscape:zoom="1.6621094"
   inkscape:cx="256"
   inkscape:cy="96.27622"
   inkscape:window-x="1912"
   inkscape:window-y="-8"
   inkscape:window-maximized="1"
   inkscape:current-layer="Capa_1" />
<rect
   y="0.00043697227"
   style="fill:#d80027;stroke-width:0.0878884"
   width="44.998856"
   height="29.999561"
   id="rect258"
   x="0" />
<polygon
   style="fill:#f0f0f0"
   points="140.978,426.666 122.435,426.666 122.435,295.883 0,295.883 0,277.329 0,234.666 0,216.111 122.435,216.111 122.435,85.329 140.978,85.329 183.652,85.329 202.195,85.329 202.195,216.111 512,216.111 512,234.666 512,277.329 512,295.883 202.195,295.883 202.195,426.666 183.652,426.666 "
   id="polygon260"
   transform="matrix(0.0878884,0,0,0.0878884,0,-7.4994293)" />
<polygon
   style="fill:#2e52b2"
   points="140.978,426.666 140.978,277.329 0,277.329 0,234.666 140.978,234.666 140.978,85.329 183.652,85.329 183.652,234.666 512,234.666 512,277.329 183.652,277.329 183.652,426.666 "
   id="polygon262"
   transform="matrix(0.0878884,0,0,0.0878884,0,-7.4994293)" />
<g
   id="g264"
   transform="matrix(0.0878884,0,0,0.0878884,0,-7.4994293)">
</g>
<g
   id="g266"
   transform="matrix(0.0878884,0,0,0.0878884,0,-7.4994293)">
</g>
<g
   id="g268"
   transform="matrix(0.0878884,0,0,0.0878884,0,-7.4994293)">
</g>
<g
   id="g270"
   transform="matrix(0.0878884,0,0,0.0878884,0,-7.4994293)">
</g>
<g
   id="g272"
   transform="matrix(0.0878884,0,0,0.0878884,0,-7.4994293)">
</g>
<g
   id="g274"
   transform="matrix(0.0878884,0,0,0.0878884,0,-7.4994293)">
</g>
<g
   id="g276"
   transform="matrix(0.0878884,0,0,0.0878884,0,-7.4994293)">
</g>
<g
   id="g278"
   transform="matrix(0.0878884,0,0,0.0878884,0,-7.4994293)">
</g>
<g
   id="g280"
   transform="matrix(0.0878884,0,0,0.0878884,0,-7.4994293)">
</g>
<g
   id="g282"
   transform="matrix(0.0878884,0,0,0.0878884,0,-7.4994293)">
</g>
<g
   id="g284"
   transform="matrix(0.0878884,0,0,0.0878884,0,-7.4994293)">
</g>
<g
   id="g286"
   transform="matrix(0.0878884,0,0,0.0878884,0,-7.4994293)">
</g>
<g
   id="g288"
   transform="matrix(0.0878884,0,0,0.0878884,0,-7.4994293)">
</g>
<g
   id="g290"
   transform="matrix(0.0878884,0,0,0.0878884,0,-7.4994293)">
</g>
<g
   id="g292"
   transform="matrix(0.0878884,0,0,0.0878884,0,-7.4994293)">
</g>
</svg>
